<svg width="64" height="38" viewBox="0 0 64 38" fill="none" xmlns="http://www.w3.org/2000/svg">
<path d="M23.4866 0.811421V7.50568C24.3565 6.51394 25.4294 5.54474 26.7052 4.59807C28.039 3.60633 30.2137 2.59205 33.2292 1.55523C36.2448 0.51841 39.5213 0 43.0588 0H44.1027C47.8142 0 51.0037 0.47333 53.6713 1.41999C56.3389 2.32158 58.3686 3.58379 59.7604 5.20664C61.1522 6.78441 62.1671 8.47488 62.805 10.278C63.4429 12.0361 63.7619 13.9745 63.7619 16.0933V19.7447H40.7972V18.4599C40.7972 16.251 40.1013 14.4704 38.7095 13.118C37.3757 11.7206 35.259 11.0219 32.3594 11.0219C29.6338 11.0219 27.4881 11.7431 25.9223 13.1857C24.4145 14.6282 23.6606 16.5215 23.6606 18.8656V37.1903H0V0.811421H23.4866Z" fill="white"/>
</svg>
