<svg width="176" height="33" viewBox="0 0 176 33" fill="none" xmlns="http://www.w3.org/2000/svg">
<path d="M164.031 32.7435H162.257C154.539 32.7435 150.68 30.6903 150.68 26.5839V26.3581H159.613C159.613 26.5731 159.645 26.7774 159.71 26.9709C159.796 27.1644 159.946 27.3901 160.161 27.6481C160.376 27.9061 160.742 28.1104 161.258 28.2608C161.795 28.4113 162.44 28.4866 163.193 28.4866H163.257C164.654 28.4866 165.6 28.3576 166.095 28.0996C166.589 27.8416 166.837 27.4869 166.837 27.0354V26.9709C166.837 26.5194 166.622 26.1861 166.192 25.9711C165.762 25.7346 164.869 25.5949 163.515 25.5519L159.839 25.4551C153.862 25.2401 150.873 23.4234 150.873 20.005V19.8115C150.873 19.0375 151.024 18.3602 151.325 17.7797C151.626 17.1777 152.163 16.608 152.937 16.0705C153.733 15.533 154.904 15.1245 156.452 14.845C158.022 14.5655 159.957 14.4258 162.257 14.4258H163.967C171.556 14.4258 175.351 16.221 175.351 19.8115V20.0372H166.579C166.536 19.7577 166.46 19.532 166.353 19.36C166.245 19.1665 165.912 18.9622 165.353 18.7472C164.816 18.5322 164.063 18.4247 163.096 18.4247H163.064C161.731 18.4247 160.828 18.5215 160.355 18.715C159.903 18.887 159.677 19.188 159.677 19.618V19.6502C159.677 20.0372 159.903 20.3382 160.355 20.5532C160.806 20.7682 161.655 20.8972 162.902 20.9402L166.546 21.0369C169.105 21.1229 171.083 21.3917 172.48 21.8432C173.878 22.2947 174.813 22.8859 175.286 23.6169C175.759 24.3479 175.996 25.3261 175.996 26.5516V26.7774C175.996 27.4654 175.91 28.0889 175.738 28.6478C175.566 29.1853 175.222 29.7228 174.706 30.2603C174.19 30.7763 173.502 31.2171 172.642 31.5826C171.782 31.9265 170.621 32.206 169.159 32.421C167.718 32.636 166.009 32.7435 164.031 32.7435Z" fill="#041D58"/>
<path d="M137.785 8.26562H149.04L146.073 24.5194H140.72L137.785 8.26562ZM147.976 25.9706V32.2593H138.849V25.9706H147.976Z" fill="#041D58"/>
<path d="M158.664 32.7435H156.89C149.172 32.7435 145.312 30.6903 145.312 26.5839V26.3581H154.246C154.246 26.5731 154.278 26.7774 154.342 26.9709C154.428 27.1644 154.579 27.3901 154.794 27.6481C155.009 27.9061 155.374 28.1104 155.89 28.2608C156.428 28.4113 157.073 28.4866 157.825 28.4866H157.89C159.287 28.4866 160.233 28.3576 160.728 28.0996C161.222 27.8416 161.47 27.4869 161.47 27.0354V26.9709C161.47 26.5194 161.255 26.1861 160.825 25.9711C160.395 25.7346 159.502 25.5949 158.148 25.5519L154.471 25.4551C148.494 25.2401 145.506 23.4234 145.506 20.005V19.8115C145.506 19.0375 145.656 18.3602 145.957 17.7797C146.258 17.1777 146.796 16.608 147.57 16.0705C148.365 15.533 149.537 15.1245 151.085 14.845C152.655 14.5655 154.59 14.4258 156.89 14.4258H158.599C166.189 14.4258 169.983 16.221 169.983 19.8115V20.0372H161.212C161.169 19.7577 161.093 19.532 160.986 19.36C160.878 19.1665 160.545 18.9622 159.986 18.7472C159.449 18.5322 158.696 18.4247 157.729 18.4247H157.696C156.363 18.4247 155.46 18.5215 154.987 18.715C154.536 18.887 154.31 19.188 154.31 19.618V19.6502C154.31 20.0372 154.536 20.3382 154.987 20.5532C155.439 20.7682 156.288 20.8972 157.535 20.9402L161.179 21.0369C163.738 21.1229 165.716 21.3917 167.113 21.8432C168.511 22.2947 169.446 22.8859 169.919 23.6169C170.392 24.3479 170.628 25.3261 170.628 26.5516V26.7774C170.628 27.4654 170.542 28.0889 170.37 28.6478C170.198 29.1853 169.854 29.7228 169.338 30.2603C168.822 30.7763 168.134 31.2171 167.274 31.5826C166.414 31.9265 165.253 32.206 163.791 32.421C162.351 32.636 160.642 32.7435 158.664 32.7435Z" fill="#082C81"/>
<path d="M132.418 8.26562H143.673L140.706 24.5194H135.353L132.418 8.26562ZM142.609 25.9706V32.2593H133.482V25.9706H142.609Z" fill="#082C81"/>
<path d="M153.297 32.7435H151.523C143.805 32.7435 139.945 30.6903 139.945 26.5839V26.3581H148.878C148.878 26.5731 148.911 26.7774 148.975 26.9709C149.061 27.1644 149.212 27.3901 149.427 27.6481C149.642 27.9061 150.007 28.1104 150.523 28.2608C151.061 28.4113 151.706 28.4866 152.458 28.4866H152.523C153.92 28.4866 154.866 28.3576 155.361 28.0996C155.855 27.8416 156.102 27.4869 156.102 27.0354V26.9709C156.102 26.5194 155.887 26.1861 155.457 25.9711C155.027 25.7346 154.135 25.5949 152.781 25.5519L149.104 25.4551C143.127 25.2401 140.139 23.4234 140.139 20.005V19.8115C140.139 19.0375 140.289 18.3602 140.59 17.7797C140.891 17.1777 141.429 16.608 142.203 16.0705C142.998 15.533 144.17 15.1245 145.718 14.845C147.287 14.5655 149.222 14.4258 151.523 14.4258H153.232C160.822 14.4258 164.616 16.221 164.616 19.8115V20.0372H155.844C155.801 19.7577 155.726 19.532 155.619 19.36C155.511 19.1665 155.178 18.9622 154.619 18.7472C154.081 18.5322 153.329 18.4247 152.361 18.4247H152.329C150.996 18.4247 150.093 18.5215 149.62 18.715C149.169 18.887 148.943 19.188 148.943 19.618V19.6502C148.943 20.0372 149.169 20.3382 149.62 20.5532C150.072 20.7682 150.921 20.8972 152.168 20.9402L155.812 21.0369C158.371 21.1229 160.349 21.3917 161.746 21.8432C163.143 22.2947 164.079 22.8859 164.552 23.6169C165.025 24.3479 165.261 25.3261 165.261 26.5516V26.7774C165.261 27.4654 165.175 28.0889 165.003 28.6478C164.831 29.1853 164.487 29.7228 163.971 30.2603C163.455 30.7763 162.767 31.2171 161.907 31.5826C161.047 31.9265 159.886 32.206 158.424 32.421C156.984 32.636 155.275 32.7435 153.297 32.7435Z" fill="#083DB9"/>
<path d="M127.051 8.26562H138.306L135.339 24.5194H129.985L127.051 8.26562ZM137.242 25.9706V32.2593H128.115V25.9706H137.242Z" fill="#083DB9"/>
<path d="M147.929 32.7435H146.156C138.437 32.7435 134.578 30.6903 134.578 26.5839V26.3581H143.511C143.511 26.5731 143.544 26.7774 143.608 26.9709C143.694 27.1644 143.844 27.3901 144.059 27.6481C144.274 27.9061 144.64 28.1104 145.156 28.2608C145.693 28.4113 146.338 28.4866 147.091 28.4866H147.155C148.553 28.4866 149.499 28.3576 149.993 28.0996C150.488 27.8416 150.735 27.4869 150.735 27.0354V26.9709C150.735 26.5194 150.52 26.1861 150.09 25.9711C149.66 25.7346 148.768 25.5949 147.413 25.5519L143.737 25.4551C137.76 25.2401 134.772 23.4234 134.772 20.005V19.8115C134.772 19.0375 134.922 18.3602 135.223 17.7797C135.524 17.1777 136.062 16.608 136.836 16.0705C137.631 15.533 138.803 15.1245 140.351 14.845C141.92 14.5655 143.855 14.4258 146.156 14.4258H147.865C155.454 14.4258 159.249 16.221 159.249 19.8115V20.0372H150.477C150.434 19.7577 150.359 19.532 150.251 19.36C150.144 19.1665 149.811 18.9622 149.252 18.7472C148.714 18.5322 147.962 18.4247 146.994 18.4247H146.962C145.629 18.4247 144.726 18.5215 144.253 18.715C143.802 18.887 143.576 19.188 143.576 19.618V19.6502C143.576 20.0372 143.802 20.3382 144.253 20.5532C144.704 20.7682 145.554 20.8972 146.801 20.9402L150.445 21.0369C153.003 21.1229 154.981 21.3917 156.379 21.8432C157.776 22.2947 158.712 22.8859 159.185 23.6169C159.658 24.3479 159.894 25.3261 159.894 26.5516V26.7774C159.894 27.4654 159.808 28.0889 159.636 28.6478C159.464 29.1853 159.12 29.7228 158.604 30.2603C158.088 30.7763 157.4 31.2171 156.54 31.5826C155.68 31.9265 154.519 32.206 153.057 32.421C151.617 32.636 149.907 32.7435 147.929 32.7435Z" fill="#3370FF"/>
<path d="M121.684 8.26562H132.939L129.972 24.5194H124.618L121.684 8.26562ZM131.874 25.9706V32.2593H122.748V25.9706H131.874Z" fill="#3370FF"/>
<path d="M143.879 32.7514H142.105C134.387 32.7514 130.527 30.6981 130.527 26.5917V26.3659H139.46C139.46 26.5809 139.493 26.7852 139.557 26.9787C139.643 27.1722 139.794 27.3979 140.009 27.6559C140.224 27.9139 140.589 28.1182 141.105 28.2687C141.643 28.4192 142.288 28.4944 143.04 28.4944H143.105C144.502 28.4944 145.448 28.3654 145.943 28.1074C146.437 27.8494 146.684 27.4947 146.684 27.0432V26.9787C146.684 26.5272 146.469 26.1939 146.039 25.9789C145.609 25.7424 144.717 25.6027 143.363 25.5597L139.686 25.4629C133.709 25.248 130.721 23.4312 130.721 20.0128V19.8193C130.721 19.0453 130.871 18.368 131.172 17.7875C131.473 17.1856 132.011 16.6158 132.785 16.0783C133.58 15.5408 134.752 15.1323 136.3 14.8528C137.869 14.5733 139.804 14.4336 142.105 14.4336H143.814C151.404 14.4336 155.198 16.2288 155.198 19.8193V20.045H146.426C146.383 19.7655 146.308 19.5398 146.201 19.3678C146.093 19.1743 145.76 18.97 145.201 18.755C144.663 18.54 143.911 18.4325 142.943 18.4325H142.911C141.578 18.4325 140.675 18.5293 140.202 18.7228C139.751 18.8948 139.525 19.1958 139.525 19.6258V19.658C139.525 20.045 139.751 20.346 140.202 20.561C140.654 20.776 141.503 20.905 142.75 20.948L146.394 21.0448C148.953 21.1308 150.931 21.3995 152.328 21.851C153.726 22.3025 154.661 22.8937 155.134 23.6247C155.607 24.3557 155.843 25.334 155.843 26.5594V26.7852C155.843 27.4732 155.757 28.0967 155.585 28.6557C155.413 29.1932 155.069 29.7306 154.553 30.2681C154.037 30.7841 153.349 31.2249 152.489 31.5904C151.629 31.9344 150.468 32.2139 149.006 32.4289C147.566 32.6439 145.857 32.7514 143.879 32.7514Z" fill="white"/>
<path d="M117.617 8.27344H128.872L125.905 24.5272H120.552L117.617 8.27344ZM127.808 25.9785V32.2671H118.681V25.9785H127.808Z" fill="white"/>
<path d="M84.3469 22.4135H76.9295C73.855 22.4135 72.3178 20.7687 72.3178 17.4793V10.3844H68.9961V5.06318H72.3178V0H81.0252V5.06318H84.3469V10.3844H81.0252V15.512C81.0252 16.071 81.1112 16.4688 81.2832 16.7053C81.4767 16.9203 81.8744 17.0278 82.4764 17.0278H84.3469V22.4135Z" fill="#E05224"/>
<path d="M84.3469 24.7767H76.9295C73.855 24.7767 72.3178 23.132 72.3178 19.8426V12.7476H68.9961V7.42646H72.3178V2.36328H81.0252V7.42646H84.3469V12.7476H81.0252V17.8753C81.0252 18.4343 81.1112 18.8321 81.2832 19.0686C81.4767 19.2836 81.8744 19.3911 82.4764 19.3911H84.3469V24.7767Z" fill="#F69D27"/>
<path d="M84.3469 27.3744H76.9295C73.855 27.3744 72.3178 25.7297 72.3178 22.4402V15.3453H68.9961V10.0241H72.3178V4.96094H81.0252V10.0241H84.3469V15.3453H81.0252V20.473C81.0252 21.032 81.1112 21.4297 81.2832 21.6662C81.4767 21.8812 81.8744 21.9887 82.4764 21.9887H84.3469V27.3744Z" fill="#F7B428"/>
<path d="M84.3469 29.7377H76.9295C73.855 29.7377 72.3178 28.0929 72.3178 24.8035V17.7086H68.9961V12.3874H72.3178V7.32422H81.0252V12.3874H84.3469V17.7086H81.0252V22.8363C81.0252 23.3953 81.1112 23.793 81.2832 24.0295C81.4767 24.2445 81.8744 24.352 82.4764 24.352H84.3469V29.7377Z" fill="#FDE152"/>
<path d="M84.3469 29.7377H76.9295C73.855 29.7377 72.3178 28.0929 72.3178 24.8035V17.7086H68.9961V12.3874H72.3178V7.32422H81.0252V12.3874H84.3469V17.7086H81.0252V22.8363C81.0252 23.3953 81.1112 23.793 81.2832 24.0295C81.4767 24.2445 81.8744 24.352 82.4764 24.352H84.3469V29.7377Z" fill="#FDE152"/>
<path d="M99.249 18.7648C96.3896 18.7648 94.7233 19.6355 94.2504 21.377H104.248C103.882 19.6355 102.216 18.7648 99.249 18.7648ZM112.955 26.0209V26.0854C112.955 26.6659 112.88 27.2141 112.729 27.7301C112.579 28.2461 112.235 28.8374 111.697 29.5039C111.16 30.1489 110.45 30.7078 109.569 31.1808C108.687 31.6323 107.43 32.0193 105.796 32.3418C104.183 32.6643 102.302 32.8256 100.152 32.8256H98.4428C96.4003 32.8256 94.5943 32.6428 93.0249 32.2773C91.4554 31.9118 90.2084 31.4388 89.2839 30.8583C88.3594 30.2779 87.6069 29.5899 87.0264 28.7944C86.446 27.9774 86.0482 27.1819 85.8332 26.4079C85.6397 25.6124 85.543 24.7739 85.543 23.8924V23.2474C85.543 17.421 89.8107 14.5078 98.3461 14.5078H100.12C101.689 14.5078 103.108 14.6153 104.377 14.8303C105.667 15.0238 106.752 15.2926 107.634 15.6365C108.515 15.9805 109.279 16.4105 109.924 16.9265C110.59 17.4425 111.117 17.9693 111.504 18.5068C111.891 19.0228 112.203 19.614 112.439 20.2805C112.676 20.9255 112.826 21.5382 112.891 22.1187C112.977 22.6777 113.02 23.2904 113.02 23.9569V24.9244H94.1536C94.4546 27.0529 96.2068 28.1171 99.4103 28.1171H99.4425C100.217 28.1171 100.905 28.0526 101.507 27.9236C102.13 27.7946 102.603 27.6549 102.925 27.5044C103.269 27.3324 103.549 27.1389 103.764 26.9239C103.979 26.7089 104.119 26.5369 104.183 26.4079C104.248 26.2574 104.291 26.1284 104.312 26.0209H112.955Z" fill="white"/>
<path d="M84.3469 32.3392H76.9295C73.855 32.3392 72.3178 30.6945 72.3178 27.4051V20.3101H68.9961V14.989H72.3178V9.92578H81.0252V14.989H84.3469V20.3101H81.0252V25.4378C81.0252 25.9968 81.1112 26.3946 81.2832 26.6311C81.4767 26.8461 81.8744 26.9536 82.4764 26.9536H84.3469V32.3392Z" fill="white"/>
<path d="M58.7412 24.8912V24.1494L52.9362 25.1814C52.1622 25.3104 51.614 25.4824 51.2915 25.6974C50.969 25.9124 50.8078 26.2349 50.8078 26.6649V26.6972C50.8078 27.1916 51.012 27.6109 51.4205 27.9549C51.8505 28.2989 52.56 28.4709 53.549 28.4709C55.097 28.4709 56.3439 28.1161 57.2899 27.4066C58.2574 26.6757 58.7412 25.8372 58.7412 24.8912ZM58.9024 30.0189C57.1394 31.7818 54.4305 32.6633 50.7755 32.6633H50.4208C47.7118 32.6633 45.6908 32.1258 44.3578 31.0508C43.0464 29.9759 42.3906 28.6536 42.3906 27.0841V26.6972C42.3906 25.1922 42.9281 24.0312 44.0031 23.2142C45.0996 22.3757 46.9056 21.8597 49.421 21.6662L57.7737 20.9245C58.4187 20.8385 58.7412 20.559 58.7412 20.086C58.7412 19.828 58.6659 19.613 58.5154 19.441C58.3864 19.269 58.0317 19.1185 57.4512 18.9895C56.8707 18.839 56.0429 18.7638 54.968 18.7638H54.839C53.979 18.7638 53.2587 18.8283 52.6782 18.9573C52.1192 19.0648 51.7215 19.2368 51.485 19.4732C51.27 19.7097 51.1303 19.8925 51.0658 20.0215C51.0228 20.129 50.9798 20.301 50.9368 20.5375H42.8099V20.344C42.8099 19.7635 42.8529 19.2583 42.9389 18.8283C43.0464 18.3983 43.3151 17.893 43.7451 17.3125C44.1751 16.732 44.7556 16.259 45.4866 15.8935C46.2391 15.5281 47.3356 15.2163 48.776 14.9583C50.238 14.6788 51.958 14.5391 53.936 14.5391H55.7419C57.8059 14.5391 59.5904 14.6681 61.0954 14.9261C62.6004 15.1626 63.7398 15.4636 64.5138 15.829C65.2878 16.173 65.9006 16.6245 66.3521 17.1835C66.8035 17.721 67.0723 18.2048 67.1583 18.6348C67.2658 19.0433 67.3195 19.5377 67.3195 20.1182V26.5359C67.3195 27.0304 67.5668 27.2776 68.0613 27.2776H68.9965V32.3408H61.7081C60.0956 32.3408 59.1604 31.5668 58.9024 30.0189Z" fill="white"/>
<path d="M22.2414 29.7416H14.824C11.7496 29.7416 10.2123 28.0969 10.2123 24.8074V17.7125H6.89062V12.3913H10.2123V7.32812H18.9197V12.3913H22.2414V17.7125H18.9197V22.8402C18.9197 23.3992 19.0057 23.7969 19.1777 24.0334C19.3712 24.2484 19.769 24.3559 20.3709 24.3559H22.2414V29.7416Z" fill="#822267"/>
<path d="M26.9602 29.7416H19.5428C16.4683 29.7416 14.9311 28.0969 14.9311 24.8074V17.7125H11.6094V12.3913H14.9311V7.32812H23.6385V12.3913H26.9602V17.7125H23.6385V22.8402C23.6385 23.3992 23.7245 23.7969 23.8965 24.0334C24.09 24.2484 24.4877 24.3559 25.0897 24.3559H26.9602V29.7416Z" fill="#A22B81"/>
<path d="M31.6789 29.7416H24.2615C21.1871 29.7416 19.6498 28.0969 19.6498 24.8074V17.7125H16.3281V12.3913H19.6498V7.32812H28.3572V12.3913H31.6789V17.7125H28.3572V22.8402C28.3572 23.3992 28.4432 23.7969 28.6152 24.0334C28.8087 24.2484 29.2065 24.3559 29.8084 24.3559H31.6789V29.7416Z" fill="#CA32A0"/>
<path d="M36.3938 29.7416H28.9764C25.9019 29.7416 24.3647 28.0969 24.3647 24.8074V17.7125H21.043V12.3913H24.3647V7.32812H33.0721V12.3913H36.3938V17.7125H33.0721V22.8402C33.0721 23.3992 33.1581 23.7969 33.3301 24.0334C33.5236 24.2484 33.9213 24.3559 34.5233 24.3559H36.3938V29.7416Z" fill="#F336BE"/>
<path d="M41.1438 32.3392H33.7264C30.6519 32.3392 29.1147 30.6945 29.1147 27.4051V20.3101H25.793V14.989H29.1147V9.92578H37.8221V14.989H41.1438V20.3101H37.8221V25.4378C37.8221 25.9968 37.9081 26.3946 38.0801 26.6311C38.2736 26.8461 38.6713 26.9536 39.2733 26.9536H41.1438V32.3392Z" fill="white"/>
<path d="M13.3513 32.8256H11.5776C3.8592 32.8256 0 30.7723 0 26.6659V26.4402H8.93313C8.93313 26.6552 8.96538 26.8594 9.02988 27.0529C9.11588 27.2464 9.26638 27.4721 9.48138 27.7301C9.69637 27.9881 10.0619 28.1924 10.5779 28.3429C11.1154 28.4934 11.7603 28.5686 12.5128 28.5686H12.5773C13.9748 28.5686 14.9208 28.4396 15.4153 28.1816C15.9098 27.9236 16.157 27.5689 16.157 27.1174V27.0529C16.157 26.6014 15.942 26.2682 15.512 26.0532C15.0821 25.8167 14.1898 25.6769 12.8353 25.6339L9.15888 25.5372C3.18196 25.3222 0.193497 23.5054 0.193497 20.087V19.8935C0.193497 19.1195 0.343996 18.4423 0.644992 17.8618C0.945988 17.2598 1.48348 16.69 2.25747 16.1525C3.05296 15.615 4.22469 15.2066 5.77267 14.9271C7.34215 14.6476 9.27713 14.5078 11.5776 14.5078H13.2868C20.8762 14.5078 24.6709 16.303 24.6709 19.8935V20.1192H15.899C15.856 19.8397 15.7808 19.614 15.6733 19.442C15.5658 19.2485 15.2325 19.0443 14.6736 18.8293C14.1361 18.6143 13.3836 18.5068 12.4161 18.5068H12.3838C11.0509 18.5068 10.1479 18.6035 9.67487 18.797C9.22338 18.969 8.99763 19.27 8.99763 19.7V19.7322C8.99763 20.1192 9.22338 20.4202 9.67487 20.6352C10.1264 20.8502 10.9756 20.9792 12.2226 21.0222L15.8668 21.119C18.4253 21.205 20.4032 21.4737 21.8007 21.9252C23.1982 22.3767 24.1334 22.968 24.6064 23.6989C25.0794 24.4299 25.3159 25.4082 25.3159 26.6337V26.8594C25.3159 27.5474 25.2299 28.1709 25.0579 28.7299C24.8859 29.2674 24.5419 29.8049 24.0259 30.3424C23.5099 30.8583 22.8219 31.2991 21.962 31.6646C21.102 32.0086 19.941 32.2881 18.479 32.5031C17.0385 32.7181 15.3293 32.8256 13.3513 32.8256Z" fill="white"/>
</svg>
