<svg width="2344" height="380" viewBox="0 0 2344 380" fill="none" xmlns="http://www.w3.org/2000/svg">
<path d="M207.5 379.5H180C60.3333 379.5 0.5 347.667 0.5 284V280.5H139C139 283.833 139.5 287 140.5 290C141.833 293 144.167 296.5 147.5 300.5C150.833 304.5 156.5 307.667 164.5 310C172.833 312.333 182.833 313.5 194.5 313.5H195.5C217.167 313.5 231.833 311.5 239.5 307.5C247.167 303.5 251 298 251 291V290C251 283 247.667 277.833 241 274.5C234.333 270.833 220.5 268.667 199.5 268L142.5 266.5C49.8333 263.167 3.5 235 3.5 182V179C3.5 167 5.83333 156.5 10.5 147.5C15.1667 138.167 23.5 129.333 35.5 121C47.8333 112.667 66 106.333 90 102C114.333 97.6667 144.333 95.5 180 95.5H206.5C324.167 95.5 383 123.333 383 179V182.5H247C246.333 178.167 245.167 174.667 243.5 172C241.833 169 236.667 165.833 228 162.5C219.667 159.167 208 157.5 193 157.5H192.5C171.833 157.5 157.833 159 150.5 162C143.5 164.667 140 169.333 140 176V176.5C140 182.5 143.5 187.167 150.5 190.5C157.5 193.833 170.667 195.833 190 196.5L246.5 198C286.167 199.333 316.833 203.5 338.5 210.5C360.167 217.5 374.667 226.667 382 238C389.333 249.333 393 264.5 393 283.5V287C393 297.667 391.667 307.333 389 316C386.333 324.333 381 332.667 373 341C365 349 354.333 355.833 341 361.5C327.667 366.833 309.667 371.167 287 374.5C264.667 377.833 238.167 379.5 207.5 379.5ZM638.402 372H523.402C475.736 372 451.902 346.5 451.902 295.5V185.5H400.402V103H451.902V24.5H586.902V103H638.402V185.5H586.902V265C586.902 273.667 588.236 279.833 590.902 283.5C593.902 286.833 600.069 288.5 609.402 288.5H638.402V372ZM911.238 256.5V245L821.238 261C809.238 263 800.738 265.667 795.738 269C790.738 272.333 788.238 277.333 788.238 284V284.5C788.238 292.167 791.405 298.667 797.738 304C804.405 309.333 815.405 312 830.738 312C854.738 312 874.072 306.5 888.738 295.5C903.738 284.167 911.238 271.167 911.238 256.5ZM913.738 336C886.405 363.333 844.405 377 787.738 377H782.238C740.238 377 708.905 368.667 688.238 352C667.905 335.333 657.738 314.833 657.738 290.5V284.5C657.738 261.167 666.072 243.167 682.738 230.5C699.738 217.5 727.738 209.5 766.738 206.5L896.238 195C906.238 193.667 911.238 189.333 911.238 182C911.238 178 910.072 174.667 907.738 172C905.738 169.333 900.238 167 891.238 165C882.238 162.667 869.405 161.5 852.738 161.5H850.738C837.405 161.5 826.238 162.5 817.238 164.5C808.572 166.167 802.405 168.833 798.738 172.5C795.405 176.167 793.238 179 792.238 181C791.572 182.667 790.905 185.333 790.238 189H664.238V186C664.238 177 664.905 169.167 666.238 162.5C667.905 155.833 672.072 148 678.738 139C685.405 130 694.405 122.667 705.738 117C717.405 111.333 734.405 106.5 756.738 102.5C779.405 98.1666 806.072 96 836.738 96H864.738C896.738 96 924.405 98 947.738 102C971.072 105.667 988.738 110.333 1000.74 116C1012.74 121.333 1022.24 128.333 1029.24 137C1036.24 145.333 1040.4 152.833 1041.74 159.5C1043.4 165.833 1044.24 173.5 1044.24 182.5V282C1044.24 289.667 1048.07 293.5 1055.74 293.5H1070.24V372H957.238C932.238 372 917.738 360 913.738 336ZM1306.86 372H1191.86C1144.19 372 1120.36 346.5 1120.36 295.5V185.5H1068.86V103H1120.36V24.5H1255.36V103H1306.86V185.5H1255.36V265C1255.36 273.667 1256.69 279.833 1259.36 283.5C1262.36 286.833 1268.53 288.5 1277.86 288.5H1306.86V372ZM1539.24 161.5C1494.91 161.5 1469.08 175 1461.74 202H1616.74C1611.08 175 1585.24 161.5 1539.24 161.5ZM1751.74 274V275C1751.74 284 1750.58 292.5 1748.24 300.5C1745.91 308.5 1740.58 317.667 1732.24 328C1723.91 338 1712.91 346.667 1699.24 354C1685.58 361 1666.08 367 1640.74 372C1615.74 377 1586.58 379.5 1553.24 379.5H1526.74C1495.08 379.5 1467.08 376.667 1442.74 371C1418.41 365.333 1399.08 358 1384.74 349C1370.41 340 1358.74 329.333 1349.74 317C1340.74 304.333 1334.58 292 1331.24 280C1328.24 267.667 1326.74 254.667 1326.74 241V231C1326.74 140.667 1392.91 95.5 1525.24 95.5H1552.74C1577.08 95.5 1599.08 97.1666 1618.74 100.5C1638.74 103.5 1655.58 107.667 1669.24 113C1682.91 118.333 1694.74 125 1704.74 133C1715.08 141 1723.24 149.167 1729.24 157.5C1735.24 165.5 1740.08 174.667 1743.74 185C1747.41 195 1749.74 204.5 1750.74 213.5C1752.08 222.167 1752.74 231.667 1752.74 242V257H1460.24C1464.91 290 1492.08 306.5 1541.74 306.5H1542.24C1554.24 306.5 1564.91 305.5 1574.24 303.5C1583.91 301.5 1591.24 299.333 1596.24 297C1601.58 294.333 1605.91 291.333 1609.24 288C1612.58 284.667 1614.74 282 1615.74 280C1616.74 277.667 1617.41 275.667 1617.74 274H1751.74ZM1761.77 -8.82149e-06H1936.27L1890.27 252H1807.27L1761.77 -8.82149e-06ZM1919.77 274.5V372H1778.27V274.5H1919.77ZM2157.7 379.5H2130.2C2010.53 379.5 1950.7 347.667 1950.7 284V280.5H2089.2C2089.2 283.833 2089.7 287 2090.7 290C2092.03 293 2094.36 296.5 2097.7 300.5C2101.03 304.5 2106.7 307.667 2114.7 310C2123.03 312.333 2133.03 313.5 2144.7 313.5H2145.7C2167.36 313.5 2182.03 311.5 2189.7 307.5C2197.36 303.5 2201.2 298 2201.2 291V290C2201.2 283 2197.86 277.833 2191.2 274.5C2184.53 270.833 2170.7 268.667 2149.7 268L2092.7 266.5C2000.03 263.167 1953.7 235 1953.7 182V179C1953.7 167 1956.03 156.5 1960.7 147.5C1965.36 138.167 1973.7 129.333 1985.7 121C1998.03 112.667 2016.2 106.333 2040.2 102C2064.53 97.6667 2094.53 95.5 2130.2 95.5H2156.7C2274.36 95.5 2333.2 123.333 2333.2 179V182.5H2197.2C2196.53 178.167 2195.36 174.667 2193.7 172C2192.03 169 2186.86 165.833 2178.2 162.5C2169.86 159.167 2158.2 157.5 2143.2 157.5H2142.7C2122.03 157.5 2108.03 159 2100.7 162C2093.7 164.667 2090.2 169.333 2090.2 176V176.5C2090.2 182.5 2093.7 187.167 2100.7 190.5C2107.7 193.833 2120.86 195.833 2140.2 196.5L2196.7 198C2236.36 199.333 2267.03 203.5 2288.7 210.5C2310.36 217.5 2324.86 226.667 2332.2 238C2339.53 249.333 2343.2 264.5 2343.2 283.5V287C2343.2 297.667 2341.86 307.333 2339.2 316C2336.53 324.333 2331.2 332.667 2323.2 341C2315.2 349 2304.53 355.833 2291.2 361.5C2277.86 366.833 2259.86 371.167 2237.2 374.5C2214.86 377.833 2188.36 379.5 2157.7 379.5Z" fill="#FDB927"/>
</svg>
